<svg width="80" height="80" viewBox="0 0 80 80" fill="none" xmlns="http://www.w3.org/2000/svg">
<g clip-path="url(#clip0_1262_5043)">
<path d="M56.0245 19.0933C55.9114 18.9759 55.7758 18.8825 55.6258 18.8188C55.4758 18.755 55.3145 18.7221 55.1515 18.7222H24.845C24.6809 18.7222 24.5186 18.7555 24.3679 18.82C24.2171 18.8846 24.081 18.9791 23.9678 19.0977C23.8546 19.2164 23.7667 19.3569 23.7093 19.5105C23.652 19.6642 23.6264 19.8279 23.6342 19.9917L24.4382 36.9287C24.4485 37.1453 24.5167 37.3551 24.6356 37.5363C24.7545 37.7176 24.9199 37.8636 25.1145 37.9592L53.4698 51.8917C53.6361 51.9735 53.8189 52.016 54.0042 52.0159C54.3179 52.0161 54.6195 51.8946 54.8454 51.6769C55.0713 51.4592 55.204 51.1624 55.2154 50.8489L56.3628 19.9794C56.3688 19.8165 56.342 19.6541 56.2839 19.5019C56.2257 19.3496 56.1375 19.2106 56.0245 19.0933Z" fill="#EB5764"/>
<path d="M56.0245 19.0933C55.9114 18.9759 55.7758 18.8825 55.6258 18.8188C55.4758 18.755 55.3145 18.7221 55.1515 18.7222H24.845C24.6809 18.7222 24.5186 18.7555 24.3679 18.82C24.2171 18.8846 24.081 18.9791 23.9678 19.0977C23.8546 19.2164 23.7667 19.3569 23.7093 19.5105C23.652 19.6642 23.6264 19.8279 23.6342 19.9917L23.7896 23.2676C23.7896 23.2676 44.2028 21.4022 44.2417 29.6762L44.4159 47.4431L53.4696 51.8917C53.6359 51.9735 53.8187 52.016 54.004 52.0159C54.3177 52.0161 54.6193 51.8946 54.8452 51.6769C55.0712 51.4592 55.2038 51.1624 55.2153 50.8489L56.3626 19.9794C56.3687 19.8165 56.3419 19.6541 56.2839 19.5018C56.2258 19.3496 56.1375 19.2106 56.0245 19.0933Z" fill="black" fill-opacity="0.0627451"/>
<path d="M40.012 15.0515L37.5076 5.70526C36.9061 3.46041 35.3528 1.62619 33.2462 0.673068C31.1837 -0.260057 28.8403 -0.221307 26.8164 0.779162C23.5062 2.41588 15.9981 6.77526 15.68 6.95994C13.9464 7.96729 13.3553 10.1971 14.3623 11.9307C15.3695 13.6643 17.5997 14.2551 19.3345 13.2478C19.4092 13.2043 26.94 8.83104 30.0401 7.29838C30.0722 7.2826 30.4065 7.24479 30.4826 7.58744L32.6419 15.6457L40.012 15.0515Z" fill="#E2F2F6"/>
<path d="M30.0939 6.17486C29.753 5.30361 28.572 5.66501 28.541 5.68251C25.5675 7.34923 18.8031 11.0833 18.7284 11.1267C17.0581 12.0966 14.9319 11.5817 13.8769 9.99501C13.856 10.6519 14.0086 11.3219 14.3624 11.9308C15.3695 13.6644 17.5997 14.2552 19.3345 13.2478C19.4092 13.2044 26.94 8.83111 30.0402 7.29845C30.065 7.28611 30.2713 7.26298 30.3983 7.41298L30.0939 6.17486ZM29.971 0.697512C32.1538 1.68517 33.7633 3.58579 34.3867 5.91204L36.903 15.3024L40.0122 15.0517L37.5078 5.70548C36.9063 3.46064 35.353 1.62642 33.2464 0.673293C31.7236 -0.0156129 30.0478 -0.173113 28.4603 0.19345C28.9797 0.309759 29.4858 0.478651 29.971 0.697512Z" fill="black" fill-opacity="0.0627451"/>
<path d="M56.6675 14.2329H23.3327C21.8289 14.2329 20.6055 15.4563 20.6055 16.9601V19.9829C20.6055 20.1421 20.6368 20.2997 20.6977 20.4468C20.7587 20.5939 20.848 20.7275 20.9605 20.8401C21.0731 20.9526 21.2067 21.0419 21.3538 21.1028C21.5008 21.1637 21.6585 21.1951 21.8177 21.1951H58.1828C58.5043 21.1951 58.8126 21.0674 59.04 20.8401C59.2673 20.6127 59.395 20.3044 59.395 19.9829V16.9601C59.3948 15.4563 58.1714 14.2329 56.6675 14.2329Z" fill="#FFCD58"/>
<path d="M56.668 14.2329H44.5469C46.0508 14.2329 47.2741 15.4563 47.2741 16.9601V19.9829C47.2741 20.3044 47.1463 20.6127 46.919 20.8401C46.6917 21.0674 46.3834 21.1951 46.0619 21.1951H58.183C58.5045 21.1951 58.8128 21.0674 59.0401 20.8401C59.2674 20.6127 59.3952 20.3044 59.3952 19.9829V16.9601C59.3953 15.4563 58.1719 14.2329 56.668 14.2329ZM60.4908 25.8267C60.3995 25.6948 60.283 25.5823 60.148 25.4958C60.013 25.4092 59.8621 25.3503 59.7042 25.3224L55.3891 24.5615C55.0725 24.5058 54.7467 24.5781 54.4834 24.7626C54.2202 24.947 54.0409 25.2284 53.985 25.5449L51.6098 39.0323C51.5818 39.1913 51.5858 39.3544 51.6217 39.5118L53.972 49.8267C54.0331 50.0944 54.1832 50.3335 54.3979 50.5048C54.6125 50.6761 54.879 50.7694 55.1536 50.7695C55.1612 50.7695 55.1689 50.7695 55.177 50.7692C55.4556 50.7639 55.7238 50.6629 55.9365 50.483C56.1493 50.3031 56.2935 50.0555 56.345 49.7817L60.685 26.7406C60.7146 26.583 60.7127 26.421 60.6794 26.2642C60.6461 26.1073 60.582 25.9586 60.4908 25.8267Z" fill="#F2B841"/>
<path d="M60.4893 25.827C60.3703 25.6551 60.2075 25.5236 60.0229 25.4331L56.7386 38.0881L53.6862 27.2325L51.6082 39.0326C51.5802 39.1917 51.5842 39.3547 51.6201 39.5122L53.8403 49.2559L53.9704 49.827C54.0315 50.0948 54.1816 50.3339 54.3963 50.5051C54.6109 50.6764 54.8774 50.7698 55.152 50.7698C55.1596 50.7698 55.1673 50.7698 55.1754 50.7695C55.454 50.7643 55.7222 50.6632 55.9349 50.4834C56.1477 50.3035 56.2919 50.0558 56.3434 49.782L57.8211 41.9375L60.6836 26.7409C60.7132 26.5833 60.7113 26.4214 60.678 26.2645C60.6446 26.1076 60.5805 25.9589 60.4893 25.827Z" fill="black" fill-opacity="0.0627451"/>
<path d="M57.4631 52.7462L52.6448 24.1837C52.6181 24.0261 52.5605 23.8752 52.4753 23.7399C52.3901 23.6046 52.279 23.4875 52.1484 23.3953C52.0177 23.3031 51.8701 23.2376 51.7141 23.2027C51.5581 23.1677 51.3967 23.164 51.2392 23.1917L46.9237 23.9525C46.7667 23.9801 46.6166 24.0384 46.4821 24.1242C46.3477 24.2099 46.2315 24.3213 46.1402 24.4521C46.0489 24.5828 45.9843 24.7303 45.9501 24.886C45.9159 25.0417 45.9127 25.2027 45.9409 25.3597L50.777 52.4108C50.8198 52.6501 50.9337 52.8711 51.1037 53.0449C51.2737 53.2188 51.4921 53.3375 51.7304 53.3856L56.0485 54.2569C56.1275 54.2727 56.2077 54.2807 56.2882 54.2808H56.2953C56.6166 54.2805 56.9246 54.1527 57.1517 53.9254C57.3788 53.6981 57.5063 53.3899 57.5062 53.0686C57.5065 52.9597 57.492 52.8512 57.4631 52.7462ZM64.5485 22.2495H60.1665C59.845 22.2495 59.5367 22.3772 59.3094 22.6046C59.082 22.8319 58.9543 23.1402 58.9543 23.4617V53.0686C58.9544 53.2766 59.0079 53.4811 59.1098 53.6624C59.2116 53.8437 59.3584 53.9958 59.536 54.104C59.7137 54.2122 59.9162 54.2728 60.1241 54.28C60.3319 54.2873 60.5381 54.2409 60.7229 54.1455L65.1049 51.8808C65.3024 51.7786 65.4681 51.6242 65.5837 51.4342C65.6993 51.2443 65.7604 51.0262 65.7604 50.8039V23.4617C65.7605 23.3025 65.7291 23.1449 65.6683 22.9978C65.6074 22.8508 65.5181 22.7171 65.4056 22.6046C65.293 22.492 65.1594 22.4027 65.0124 22.3418C64.8653 22.2809 64.7077 22.2495 64.5485 22.2495Z" fill="#E08726"/>
<path d="M50.6082 44.9037L45.6569 26.8765C45.5723 26.5677 45.3688 26.305 45.0909 26.1457C44.8131 25.9865 44.4835 25.9438 44.1743 26.0268L39.9415 27.1609C39.7866 27.2023 39.6416 27.2741 39.5147 27.372C39.3878 27.4699 39.2816 27.5921 39.2023 27.7313C39.1228 27.8705 39.0718 28.0241 39.0521 28.1831C39.0325 28.3422 39.0446 28.5036 39.0877 28.6579L43.0252 42.7506C43.0685 42.9055 43.1422 43.0502 43.242 43.1764C43.3418 43.3025 43.4657 43.4076 43.6065 43.4854L48.8849 46.4021C49.0642 46.5015 49.2659 46.5535 49.4708 46.5534C49.4732 46.5534 49.4762 46.5537 49.4771 46.5534C49.6363 46.5534 49.7939 46.5221 49.941 46.4611C50.0881 46.4002 50.2217 46.3109 50.3343 46.1984C50.4469 46.0858 50.5361 45.9522 50.5971 45.8051C50.658 45.658 50.6893 45.5004 50.6893 45.3412C50.6893 45.187 50.6605 45.0395 50.6082 44.9037Z" fill="#F2B841"/>
<path d="M44.443 41.0807L38.1794 30.1737C38.0999 30.0355 37.994 29.9143 37.8677 29.8171C37.7414 29.7199 37.5972 29.6485 37.4433 29.6071C37.2893 29.5657 37.1288 29.555 36.9707 29.5757C36.8127 29.5964 36.6603 29.6481 36.5222 29.7277L32.7272 31.9188C32.4496 32.079 32.2468 32.3426 32.1632 32.6519C32.0795 32.9613 32.1217 33.2912 32.2806 33.5694L35.8413 39.8057C35.9783 40.0457 36.1933 40.2316 36.4505 40.3327L43.0036 42.9085C43.1446 42.9642 43.2949 42.9927 43.4466 42.9926H43.4608C43.7809 42.9904 44.0871 42.8618 44.3127 42.6347C44.5383 42.4076 44.6649 42.1005 44.6649 41.7804C44.6655 41.5298 44.5879 41.2852 44.443 41.0807Z" fill="#E08726"/>
<path d="M64.5483 22.2495H63.4414C63.4541 22.3194 63.4655 22.39 63.4677 22.4636L64.3414 52.164C64.3425 52.2022 64.3394 52.2397 64.3375 52.2773L65.1048 51.8808C65.3023 51.7786 65.468 51.6242 65.5836 51.4342C65.6992 51.2443 65.7603 51.0262 65.7603 50.8039V23.4617C65.7603 23.3025 65.729 23.1449 65.6681 22.9978C65.6072 22.8508 65.5179 22.7171 65.4054 22.6046C65.2928 22.492 65.1592 22.4027 65.0121 22.3418C64.8651 22.2809 64.7075 22.2495 64.5483 22.2495Z" fill="black" fill-opacity="0.0627451"/>
<path d="M72.5848 26.6927L68.2693 25.9319C67.953 25.8763 67.6276 25.9484 67.3644 26.1324C67.1011 26.3164 66.9217 26.5973 66.8654 26.9135L62.2921 52.6288C62.2452 52.8928 62.2872 53.1648 62.4114 53.4024C62.5356 53.6399 62.735 53.8296 62.9785 53.9418C63.222 54.0539 63.4958 54.0822 63.757 54.0222C64.0183 53.9622 64.2523 53.8172 64.4224 53.6101L70.157 46.6238C70.2893 46.4625 70.3778 46.2698 70.4138 46.0643L73.5681 28.096C73.6237 27.7795 73.5513 27.4539 73.367 27.1908C73.1826 26.9276 72.9012 26.7485 72.5848 26.6927Z" fill="#F2B841"/>
<path d="M79.1059 30.4746L74.9884 28.9758C74.8355 28.9202 74.673 28.896 74.5106 28.9045C74.3482 28.913 74.1891 28.9541 74.0429 29.0253C73.8967 29.0965 73.7663 29.1964 73.6595 29.3191C73.5527 29.4418 73.4716 29.5846 73.4212 29.7393L69.1885 42.7305C69.1292 42.9125 69.1139 43.1059 69.1437 43.2949C69.1735 43.4839 69.2477 43.6632 69.3601 43.8181C69.4725 43.9729 69.62 44.099 69.7905 44.1859C69.961 44.2728 70.1497 44.3182 70.341 44.3182H75.0759C75.3338 44.3182 75.585 44.2359 75.7929 44.0833C76.0009 43.9307 76.1547 43.7158 76.2321 43.4697L79.8474 31.9772C79.9411 31.6795 79.9164 31.357 79.7782 31.0771C79.6401 30.7971 79.3992 30.5813 79.1059 30.4746Z" fill="#E08726"/>
<path d="M79.1773 30.5084L73.3839 44.3184H75.0772C75.3351 44.3184 75.5863 44.2361 75.7942 44.0835C76.0022 43.9309 76.156 43.716 76.2334 43.47L79.8488 31.9775C80.0355 31.384 79.7392 30.7548 79.1773 30.5084ZM72.5855 26.6928L72.4275 26.665L66.5734 50.9906L70.1577 46.6239C70.29 46.4626 70.3785 46.2698 70.4145 46.0643L73.5688 28.0961C73.6244 27.7796 73.552 27.454 73.3677 27.1908C73.1833 26.9277 72.9019 26.7485 72.5855 26.6928ZM57.4642 52.7461L52.6459 24.1836C52.6193 24.0259 52.5617 23.875 52.4766 23.7397C52.3914 23.6044 52.2803 23.4872 52.1497 23.395C51.9723 23.2698 51.7655 23.2007 51.553 23.1826L55.4167 54.1289L56.0497 54.2565C56.1286 54.2724 56.2089 54.2804 56.2894 54.2804H56.2964C56.6177 54.2802 56.9258 54.1523 57.1528 53.925C57.3799 53.6977 57.5074 53.3895 57.5073 53.0682C57.5077 52.9594 57.4932 52.851 57.4642 52.7461ZM50.6083 44.9037L45.657 26.8765C45.5391 26.4473 45.2034 26.1401 44.8019 26.0318C44.8091 26.0611 44.8202 26.0879 44.8256 26.1181L48.3908 46.1289L48.885 46.402C49.0643 46.5013 49.266 46.5534 49.4709 46.5532C49.4733 46.5532 49.4763 46.5536 49.4772 46.5532C49.6364 46.5533 49.794 46.5219 49.9411 46.461C50.0882 46.4001 50.2218 46.3108 50.3344 46.1982C50.4469 46.0857 50.5362 45.952 50.5971 45.805C50.6581 45.6579 50.6894 45.5002 50.6894 45.3411C50.6894 45.187 50.6606 45.0395 50.6083 44.9037ZM44.4447 41.0809L38.3125 30.4026L42.4234 42.6798L43.0053 42.9086C43.1464 42.9642 43.2967 42.9927 43.4483 42.9926H43.4625C43.7826 42.9905 44.0888 42.8618 44.3144 42.6347C44.54 42.4076 44.6666 42.1005 44.6666 41.7804C44.6672 41.5299 44.5896 41.2853 44.4447 41.0809Z" fill="black" fill-opacity="0.0627451"/>
<path d="M79.7041 39.6514C79.5904 39.5202 79.4497 39.415 79.2917 39.3428C79.1338 39.2707 78.9622 39.2334 78.7885 39.2334H70.2954C70.0158 39.2334 69.7449 39.33 69.5284 39.5069C69.3119 39.6838 69.1633 39.9301 69.1076 40.204C67.9321 45.987 62.7883 50.1845 56.8769 50.1845C55.9571 50.1848 55.0401 50.0842 54.1422 49.8845C53.8757 49.8255 53.5971 49.8579 53.3513 49.9767C53.1055 50.0954 52.9069 50.2935 52.7876 50.539L39.3555 78.2593C39.2661 78.4441 39.225 78.6486 39.2362 78.8536C39.2473 79.0586 39.3104 79.2574 39.4194 79.4314C39.5284 79.6054 39.6799 79.7488 39.8595 79.8482C40.0391 79.9477 40.241 79.9999 40.4463 80H73.3077C73.5994 79.9999 73.8814 79.8947 74.1018 79.7036C74.3222 79.5124 74.4663 79.2483 74.5077 78.9595L79.9885 40.6173C80.0131 40.4453 80.0004 40.2701 79.9513 40.1034C79.9023 39.9368 79.818 39.7826 79.7041 39.6514Z" fill="#EB5764"/>
<path d="M65.0919 58.9663H49.2422V72.3454H65.092C67.2706 72.3454 69.043 70.573 69.043 68.3947V62.9171C69.0428 60.7385 67.2706 58.9663 65.0919 58.9663Z" fill="#8C9B9A"/>
<path d="M57.565 67.3471C57.3407 67.2265 57.1117 67.115 56.8784 67.0127C57.4672 66.4179 57.8172 65.6729 57.8172 64.8518C57.8172 64.339 57.6802 63.8558 57.4353 63.4196C58.6586 63.1137 59.5217 62.2296 59.5217 61.1576V58.5816C59.5217 49.8168 49.9773 40.2493 37.7773 37.5874V80.0001H73.3062C73.598 80 73.8799 79.8948 74.1003 79.7037C74.3207 79.5125 74.4649 79.2484 74.5062 78.9596L77.7603 56.1947C73.1138 62.3118 65.8675 66.5179 57.565 67.3471Z" fill="black" fill-opacity="0.0627451"/>
<path opacity="0.5" d="M56.8763 53.8213C56.5548 53.8213 56.2464 53.949 56.0191 54.1763C55.7918 54.4036 55.6641 54.712 55.6641 55.0334C55.6641 55.3549 55.7918 55.6633 56.0191 55.8906C56.2464 56.1179 56.5548 56.2456 56.8763 56.2456C64.4097 56.2456 71.3391 51.5372 74.1189 44.5294C74.1776 44.3814 74.2066 44.2234 74.2042 44.0642C74.2019 43.9051 74.1681 43.748 74.105 43.6019C74.0419 43.4557 73.9506 43.3235 73.8364 43.2127C73.7221 43.1018 73.5872 43.0146 73.4392 42.956C72.8181 42.7089 72.1127 43.0133 71.8658 43.6356C69.4488 49.7277 63.4252 53.8213 56.8763 53.8213Z" fill="white"/>
<path d="M52.3647 64.7783H4.63797C4.31648 64.7783 4.00815 64.906 3.78082 65.1334C3.55349 65.3607 3.42578 65.669 3.42578 65.9905V73.4197C3.42578 76.4627 6.93359 79.9999 11.4561 79.9999H45.5466C50.0689 79.9999 53.5769 76.4627 53.5769 73.4197V65.9905C53.5768 65.669 53.4491 65.3607 53.2218 65.1334C52.9945 64.9061 52.6862 64.7784 52.3647 64.7783Z" fill="#9B5E26"/>
<path d="M48.9556 57.1973H8.04703C5.45578 57.1973 3.42578 58.8319 3.42578 60.9191C3.42578 63.0063 5.45563 64.6413 8.04703 64.6413H48.9556C51.547 64.6413 53.5769 63.0063 53.5769 60.9191C53.5769 58.8319 51.547 57.1973 48.9556 57.1973Z" fill="#FFCD58"/>
<path opacity="0.1" d="M53.5014 74.1977C53.5226 74.0825 53.5393 73.9666 53.5516 73.8501C53.5548 73.8187 53.5589 73.7873 53.5614 73.7559C53.5706 73.6434 53.5767 73.5313 53.5767 73.4199V65.9907C53.5767 65.9254 53.5689 65.8623 53.5575 65.8002C53.5492 65.751 53.5379 65.7023 53.5236 65.6544C53.377 65.1498 52.9166 64.7787 52.3647 64.7787H37.1375V64.9509H10.5272C7.79562 64.9509 5.15672 65.9679 3.42578 67.6754V73.4199C3.42578 73.9691 3.54156 74.5343 3.75547 75.0921C4.03797 75.171 4.33922 75.2145 4.65734 75.2145H4.69062C6.7475 75.1959 7.99344 74.1802 8.99453 73.3643C9.81328 72.697 10.2912 72.3321 10.9594 72.3613C11.7027 72.3945 12.3403 72.8484 13.1477 73.423C14.2008 74.1726 15.5112 75.1057 17.3981 75.1057C19.3719 75.1057 20.6106 74.1176 21.6058 73.3237C22.4103 72.6818 22.8962 72.3184 23.5383 72.3119C24.0119 72.3119 24.543 72.7135 25.2153 73.2223C26.2608 74.0132 27.6925 75.0966 29.8461 75.0966C29.9086 75.0966 29.972 75.0954 30.0183 75.0943C30.0762 75.0957 30.1394 75.0984 30.1909 75.0966C32.3441 75.0963 33.7758 74.0132 34.8213 73.2226C35.4936 72.7138 36.0248 72.3119 36.5077 72.3119H36.5078C36.598 72.3129 36.6847 72.323 36.7702 72.3382C35.8792 74.7643 33.4527 76.9699 30.502 76.9699H4.88375C6.32172 78.6851 8.69953 80.0001 11.4561 80.0001H45.5466C49.523 80.0001 52.7139 77.2654 53.4267 74.5365C53.4295 74.5259 53.4316 74.5151 53.4344 74.5045C53.4601 74.403 53.4824 74.3007 53.5014 74.1977ZM48.9556 57.1973H8.04703C5.49172 57.1973 3.48625 58.7879 3.43109 60.8337H36.8345C39.4259 60.8337 40.5466 62.4684 40.5466 64.5555C40.5466 64.5846 40.5422 64.6126 40.5414 64.6413H48.9556C51.547 64.6413 53.5769 63.0063 53.5769 60.9191C53.5769 58.8319 51.547 57.1973 48.9556 57.1973Z" fill="black"/>
<path d="M28.4989 35.1519C13.7323 35.1519 1.71875 43.7586 1.71875 54.3376V57.0415C1.71875 58.4412 3.05344 59.5376 4.75719 59.5376H52.2406C53.9442 59.5376 55.2789 58.4412 55.2789 57.0415V54.3376C55.2789 43.7586 43.2655 35.1519 28.4989 35.1519Z" fill="#E08726"/>
<path d="M29.1798 46.9337C29.4239 46.9338 29.6622 46.8601 29.8637 46.7225C30.0652 46.5848 30.2205 46.3896 30.3092 46.1622C30.3979 45.9349 30.416 45.6861 30.361 45.4483C30.306 45.2106 30.1805 44.9949 30.0009 44.8297L28.6373 43.5747C28.4006 43.3578 28.0876 43.2438 27.7669 43.2575C27.4462 43.2711 27.144 43.4115 26.9266 43.6477C26.7092 43.8839 26.5944 44.1967 26.6074 44.5174C26.6203 44.8381 26.7599 45.1406 26.9956 45.3586L28.3592 46.6136C28.5827 46.8197 28.8758 46.934 29.1798 46.9337ZM19.1489 44.5164L17.7853 45.7714C17.5547 45.9906 17.4196 46.2916 17.409 46.6096C17.3983 46.9275 17.5131 47.2369 17.7286 47.471C17.944 47.7051 18.2428 47.8451 18.5605 47.8609C18.8783 47.8766 19.1895 47.7669 19.427 47.5553L20.7906 46.3003C21.0212 46.0811 21.1563 45.7801 21.1669 45.4621C21.1776 45.1442 21.0628 44.8348 20.8473 44.6007C20.6319 44.3666 20.3331 44.2266 20.0154 44.2108C19.6976 44.195 19.3864 44.3048 19.1489 44.5164ZM26.0514 48.5909H24.1228C23.8013 48.5909 23.493 48.7186 23.2657 48.946C23.0383 49.1733 22.9106 49.4816 22.9106 49.8031C22.9106 50.1246 23.0383 50.4329 23.2657 50.6602C23.493 50.8876 23.8013 51.0153 24.1228 51.0153H26.0514C26.3729 51.0153 26.6812 50.8876 26.9085 50.6602C27.1359 50.4329 27.2636 50.1246 27.2636 49.8031C27.2636 49.4816 27.1359 49.1733 26.9085 48.946C26.6812 48.7186 26.3729 48.5909 26.0514 48.5909ZM34.4362 51.3223L35.7998 50.0676C35.917 49.9599 36.0117 49.8301 36.0787 49.6857C36.1456 49.5413 36.1835 49.3851 36.1901 49.2261C36.1967 49.0671 36.1719 48.9083 36.1171 48.7589C36.0624 48.6094 35.9787 48.4722 35.8709 48.3551C35.7632 48.238 35.6334 48.1432 35.489 48.0762C35.3446 48.0092 35.1884 47.9713 35.0294 47.9647C34.8703 47.9581 34.7115 47.9829 34.5621 48.0376C34.4126 48.0924 34.2754 48.1761 34.1583 48.2839L32.7947 49.5386C32.6775 49.6463 32.5828 49.7761 32.5158 49.9205C32.4489 50.0649 32.411 50.2211 32.4044 50.3801C32.3978 50.5391 32.4226 50.6979 32.4774 50.8473C32.5321 50.9968 32.6158 51.134 32.7236 51.2511C32.837 51.3747 32.9748 51.4734 33.1285 51.5408C33.2821 51.6082 33.448 51.6429 33.6158 51.6426C33.9198 51.643 34.2128 51.5286 34.4362 51.3223ZM39.355 46.3061C39.6765 46.3061 39.9848 46.1784 40.2121 45.951C40.4395 45.7237 40.5672 45.4154 40.5672 45.0939C40.5672 44.7724 40.4395 44.4641 40.2121 44.2367C39.9848 44.0094 39.6765 43.8817 39.355 43.8817H37.4265C37.1051 43.8817 36.7967 44.0094 36.5694 44.2367C36.3421 44.4641 36.2144 44.7724 36.2144 45.0939C36.2144 45.4154 36.3421 45.7237 36.5694 45.951C36.7967 46.1784 37.1051 46.3061 37.4265 46.3061H39.355ZM45.154 51.0151C45.4755 51.0151 45.7839 50.8874 46.0112 50.6601C46.2385 50.4328 46.3662 50.1244 46.3662 49.8029C46.3662 49.4815 46.2385 49.1731 46.0112 48.9458C45.7839 48.7185 45.4755 48.5908 45.154 48.5908H43.2255C42.904 48.5908 42.5956 48.7185 42.3683 48.9458C42.141 49.1731 42.0133 49.4815 42.0133 49.8029C42.0133 50.1244 42.141 50.4328 42.3683 50.6601C42.5956 50.8874 42.904 51.0151 43.2255 51.0151H45.154ZM11.574 48.3551C11.3564 48.5917 11.2416 48.905 11.255 49.2261C11.2683 49.5473 11.4086 49.85 11.6451 50.0676L13.0087 51.3223C13.2322 51.5285 13.5252 51.6428 13.8292 51.6425C13.9969 51.6427 14.1629 51.608 14.3165 51.5406C14.4701 51.4732 14.608 51.3745 14.7214 51.2509C14.939 51.0144 15.0538 50.7011 15.0405 50.3799C15.0272 50.0588 14.8868 49.7561 14.6503 49.5384L13.2867 48.2837C13.1696 48.176 13.0323 48.0923 12.8829 48.0376C12.7334 47.9828 12.5746 47.9581 12.4156 47.9647C12.2565 47.9713 12.1004 48.0092 11.956 48.0762C11.8116 48.1432 11.6818 48.238 11.574 48.3551Z" fill="#F2B841"/>
<path opacity="0.5" d="M28.4978 38.7886C18.6394 38.7886 9.58612 43.2334 6.48206 49.5976C6.41228 49.7407 6.37136 49.8961 6.36164 50.055C6.35192 50.2139 6.37359 50.3731 6.42542 50.5236C6.47725 50.6741 6.55821 50.813 6.6637 50.9322C6.76918 51.0514 6.89711 51.1487 7.04019 51.2184C7.20533 51.2993 7.38677 51.3414 7.57066 51.3415C7.79796 51.3417 8.02073 51.2779 8.21352 51.1575C8.40632 51.0371 8.56137 50.8649 8.66097 50.6606C11.3741 45.0978 19.5314 41.2129 28.4978 41.2129C28.8193 41.2129 29.1277 41.0852 29.355 40.8579C29.5823 40.6306 29.71 40.3223 29.71 40.0008C29.71 39.6793 29.5823 39.3709 29.355 39.1436C29.1277 38.9163 28.8193 38.7886 28.4978 38.7886Z" fill="white"/>
<path opacity="0.1" d="M28.4978 35.1519C27.2636 35.1519 26.0492 35.2133 24.8589 35.3297C32.4669 38.339 37.7778 45.0453 37.7778 52.8225V55.5264C37.7778 56.9261 36.6867 58.0225 35.2939 58.0225H1.95312C2.40844 58.9211 3.47844 59.5376 4.75609 59.5376H52.2395C53.9431 59.5376 55.2778 58.4412 55.2778 57.0415V54.3376C55.2778 43.7586 43.2644 35.1519 28.4978 35.1519Z" fill="black"/>
<path d="M47.993 62.2236H9.01016C6.21672 62.2236 3.51781 63.2852 1.79031 65.063C0.594375 66.2941 -0.0407811 67.7902 0.00203135 69.2761C0.0564064 71.1668 1.34703 72.4872 3.14047 72.4872H3.17375C5.23063 72.4686 6.47656 71.453 7.47766 70.6371C8.29641 69.9697 8.77437 69.6049 9.4425 69.6343C10.1858 69.6674 10.8234 70.1213 11.6308 70.696C12.6839 71.4455 13.9944 72.3786 15.8813 72.3786C17.855 72.3786 19.0938 71.3905 20.0889 70.5966C20.8934 69.9547 21.3794 69.5913 22.0214 69.5849C22.495 69.5849 23.0261 69.9864 23.6984 70.4952C24.7439 71.2861 26.1756 72.3696 28.3292 72.3696C28.3917 72.3696 28.4552 72.3683 28.5014 72.3672C28.5594 72.3686 28.6225 72.3714 28.6741 72.3696C30.8272 72.3693 32.2589 71.2861 33.3044 70.4955C33.9767 69.9868 34.508 69.5849 34.9908 69.5849H34.9909C35.6236 69.5914 36.1097 69.9547 36.9144 70.5966C37.9095 71.3905 39.1481 72.3786 41.122 72.3786C43.0089 72.3786 44.3195 71.4455 45.3727 70.696C46.1797 70.1213 46.8173 69.6674 47.5608 69.6343C48.1736 69.6041 48.6297 69.9646 49.3958 70.6205C50.3691 71.4538 51.5803 72.4913 53.643 72.4913C53.7234 72.4913 53.8058 72.4896 53.8892 72.4863C55.7603 72.4108 56.9692 71.085 56.9692 69.1093C56.9692 65.2483 53.0262 62.2236 47.993 62.2236Z" fill="#88BE4D"/>
<path opacity="0.1" d="M47.9944 62.2236H39.8858C41.643 63.4729 42.7284 65.2664 42.7284 67.2911C42.7284 69.2671 41.5195 70.5928 39.6484 70.6682C39.565 70.6714 39.4827 70.6732 39.4022 70.6732C37.3395 70.6732 36.1284 69.6357 35.155 68.8024C34.3889 68.1463 33.9328 67.7858 33.32 67.8161C32.5766 67.8493 31.9389 68.3032 31.1319 68.8778C30.0787 69.6274 28.768 70.5605 26.8813 70.5605C24.9075 70.5605 23.6688 69.5724 22.6736 68.7785C21.8689 68.1366 21.383 67.7732 20.7502 67.7668H20.75C20.267 67.7668 19.7359 68.1686 19.0636 68.6774C18.0181 69.4682 16.5864 70.5511 14.4333 70.5514C14.3817 70.5532 14.3186 70.5505 14.2606 70.5491C14.2144 70.5504 14.1508 70.5514 14.0884 70.5514C11.9348 70.5514 10.5031 69.468 9.45766 68.6771C8.78531 68.1683 8.25422 67.7668 7.78063 67.7668C7.13859 67.7733 6.6525 68.1366 5.84813 68.7785C4.85297 69.5724 3.61437 70.5605 1.64047 70.5605C1.11453 70.5605 0.634687 70.4863 0.191406 70.3654C0.614688 71.6538 1.71859 72.4872 3.14203 72.4872H3.17531C5.23219 72.4686 6.47813 71.453 7.47922 70.6371C8.29797 69.9697 8.77594 69.6049 9.44406 69.6343C10.1873 69.6674 10.825 70.1213 11.6323 70.696C12.6855 71.4455 13.9959 72.3786 15.8828 72.3786C17.8566 72.3786 19.0953 71.3905 20.0905 70.5966C20.895 69.9547 21.3809 69.5913 22.023 69.5849C22.4966 69.5849 23.0277 69.9864 23.7 70.4952C24.7455 71.2861 26.1772 72.3696 28.3308 72.3696C28.3933 72.3696 28.4567 72.3683 28.503 72.3672C28.5609 72.3686 28.6241 72.3714 28.6756 72.3696C30.8287 72.3693 32.2605 71.2861 33.3059 70.4955C33.9783 69.9868 34.5095 69.5849 34.9923 69.5849H34.9925C35.6252 69.5914 36.1113 69.9547 36.9159 70.5966C37.9111 71.3905 39.1497 72.3786 41.1236 72.3786C43.0105 72.3786 44.3211 71.4455 45.3742 70.696C46.1813 70.1213 46.8189 69.6674 47.5623 69.6343C48.1752 69.6041 48.6312 69.9646 49.3973 70.6205C50.3706 71.4538 51.5819 72.4913 53.6445 72.4913C53.725 72.4913 53.8073 72.4896 53.8908 72.4863C55.7619 72.4108 56.9708 71.085 56.9708 69.1093C56.9706 65.2483 53.0277 62.2236 47.9944 62.2236Z" fill="black"/>
</g>
<defs>
<clipPath id="clip0_1262_5043">
<rect width="80" height="80" fill="white"/>
</clipPath>
</defs>
</svg>
